<?xml version="1.0" standalone="no"?>
<!DOCTYPE svg PUBLIC "-//W3C//DTD SVG 20010904//EN"
 "http://www.w3.org/TR/2001/REC-SVG-20010904/DTD/svg10.dtd">
<svg version="1.0" xmlns="http://www.w3.org/2000/svg"
 width="343.000000pt" height="343.000000pt" viewBox="0 0 343.000000 343.000000"
 preserveAspectRatio="xMidYMid meet">
<metadata>
Created by potrace 1.14, written by Peter Selinger 2001-2017
</metadata>
<g transform="translate(0.000000,343.000000) scale(0.100000,-0.100000)"
fill="#000000" stroke="none">
<path d="M2226 2396 c-13 -17 -61 -92 -106 -166 -46 -74 -96 -154 -111 -177
-16 -23 -29 -46 -29 -52 0 -6 -4 -11 -10 -11 -5 0 -10 -5 -10 -12 0 -6 -15
-34 -34 -62 -30 -46 -140 -221 -169 -271 -7 -11 -21 -33 -32 -50 -11 -16 -47
-75 -80 -130 -33 -55 -65 -106 -72 -113 -7 -7 -13 -18 -13 -23 0 -18 -40 -49
-55 -43 -18 7 -175 200 -175 214 0 6 -4 10 -8 10 -4 0 -37 39 -73 87 -35 47
-68 91 -74 97 -35 38 -125 157 -125 165 0 5 -4 11 -9 13 -5 2 -28 27 -50 56
-26 33 -48 52 -59 50 -20 -3 -19 -3 -786 -792 -70 -71 -124 -131 -122 -133 3
-3 93 52 121 74 30 24 156 103 164 103 5 0 11 3 13 8 6 13 207 142 211 134 2
-4 7 -19 11 -34 3 -16 11 -28 17 -28 6 0 80 41 164 91 85 50 157 91 160 91 4
0 66 -42 138 -93 73 -52 137 -95 143 -97 7 -2 15 10 19 25 3 15 6 28 4 28 -1
0 3 10 10 23 12 22 14 21 79 -49 177 -189 234 -244 239 -230 3 7 13 21 22 30
9 9 22 27 28 41 7 14 33 52 58 85 25 33 49 70 55 83 5 12 14 22 20 22 5 0 10
5 10 12 0 6 11 26 25 44 14 18 25 37 25 42 0 6 4 12 8 14 5 2 33 39 63 83 30
44 60 86 67 93 6 7 12 17 12 22 0 5 6 15 13 22 6 7 24 32 40 56 15 23 29 42
31 42 2 0 19 -25 37 -55 19 -31 39 -63 45 -72 10 -14 23 -5 93 67 l81 84 0
-407 0 -407 150 0 150 0 2 308 3 307 280 0 280 0 2 -285 c1 -157 2 -295 2
-307 1 -23 2 -23 151 -23 l150 0 0 714 0 713 -152 0 -153 0 1 -278 c1 -202 -1
-279 -10 -280 -17 0 -519 -1 -538 0 -17 1 -18 21 -18 280 l0 279 -150 0 -151
-1 -23 -31z"/>
</g>
</svg>
